<?xml version="1.0" encoding="utf-8"?>

<!-- License Agreement at http://iconmonstr.com/license/ -->

<!DOCTYPE svg PUBLIC "-//W3C//DTD SVG 1.1//EN" "http://www.w3.org/Graphics/SVG/1.1/DTD/svg11.dtd">
<svg version="1.1" xmlns="http://www.w3.org/2000/svg" xmlns:xlink="http://www.w3.org/1999/xlink" x="0px" y="0px"
	 width="512px" height="512px" viewBox="0 0 512 512" style="enable-background:new 0 0 512 512;" xml:space="preserve">
<path id="code-fork-7-icon" d="M290.334,393.334l-68.668-68.668v51.5h-51.5c-18.935,0-34.333-15.389-34.333-34.332V167.015
	c19.958-7.091,34.333-25.951,34.333-48.349c0-28.449-23.051-51.5-51.5-51.5c-28.448,0-51.5,23.051-51.5,51.5
	c0,22.397,14.376,41.257,34.334,48.349v174.819c0,37.854,30.805,68.666,68.666,68.666h51.5V462L290.334,393.334z M87.77,118.667
	c0-17.041,13.856-30.896,30.896-30.896c17.041,0,30.897,13.856,30.897,30.896c0,17.041-13.856,30.897-30.897,30.897
	C101.626,149.563,87.77,135.708,87.77,118.667z M221.666,118.667l68.668,68.667v-51.5h51.5c18.943,0,34.332,15.398,34.332,34.333
	v174.818c-19.949,7.092-34.332,25.951-34.332,48.35c0,28.448,23.051,51.5,51.5,51.5c28.448,0,51.5-23.052,51.5-51.5
	c0-22.398-14.385-41.258-34.334-48.35V170.167c0-37.862-30.812-68.667-68.666-68.667h-51.5V50L221.666,118.667z M424.23,393.334
	c0,17.031-13.865,30.896-30.896,30.896c-17.033,0-30.897-13.865-30.897-30.896c0-17.033,13.864-30.897,30.897-30.897
	C410.365,362.437,424.23,376.301,424.23,393.334z"/>
</svg>
