<svg xmlns="http://www.w3.org/2000/svg" width="512" height="512" viewBox="0 0 512 512"><path d="M291 50h-70v184.001h70v-184.001zm75.227 62.407c22.621 15.837 41.927 36.611 56.2 61.334 34.329 59.458 34.329 132.714 0 192.173-34.329 59.458-97.771 96.086-166.427 96.086-68.657 0-132.099-36.628-166.427-96.086-34.329-59.459-34.329-132.715 0-192.173 14.272-24.723 33.579-45.497 56.2-61.334l23.444 33.483c-17.81 12.468-33.009 28.824-44.247 48.287-27.026 46.812-27.026 104.487 0 151.299 27.027 46.812 76.976 75.649 131.029 75.649s104.001-28.838 131.028-75.649c27.026-46.812 27.026-104.486 0-151.299-11.237-19.463-26.438-35.819-44.247-48.287l23.447-33.483z"/></svg>