<svg xmlns="http://www.w3.org/2000/svg" width="512" height="512" viewBox="0 0 512 512"><path d="M386.481 193.24l31.665-26.544c1.472 2.315 2.913 4.655 4.292 7.045 7.275 12.601 12.991 25.825 17.184 39.402l-40.371 7.972c-3.149-9.259-7.215-18.284-12.211-26.938l-.559-.937zm14.706 119.158c-2.924 9.975-6.893 19.718-11.916 29.062l32.912 24.88.256-.427c8.427-14.596 14.772-30.025 19.062-45.875l-40.314-7.64zm-28.698 53.986c-28.459 34.337-71.014 54.742-116.478 54.742-54.054 0-104.002-28.838-131.029-75.649-27.026-46.812-27.026-104.486 0-151.299 1.755-3.039 3.611-5.997 5.555-8.882l33.244 23.912v-103.039l-97.887 32.631 31.46 22.628c-2.726 3.991-5.329 8.087-7.769 12.313-34.329 59.458-34.329 132.714 0 192.173 34.328 59.458 97.769 96.086 166.427 96.086 58.368 0 112.956-26.485 149.102-70.954l-32.625-24.662zm34.237-83.469l40.316 7.641c1.736-16.007 1.453-32.179-.844-48.131l-40.146 7.926c1.4 10.803 1.614 21.722.674 32.564zm-37.967-113.964l31.34-26.271c-10.11-11.457-21.484-21.609-33.86-30.273l-23.445 33.483c9.462 6.626 18.179 14.358 25.965 23.061zm-77.747-118.951h-70v184.001h70v-184.001z"/></svg>